<svg width="1600" height="1200" viewBox="0 0 1600 1200" fill="none" xmlns="http://www.w3.org/2000/svg">
  <g opacity="0.9" stroke="#6E5C4F" stroke-width="2.2" stroke-linecap="round" stroke-linejoin="round">
    <path d="M1094 175C1019 196 969 241 942 306C912 379 913 452 946 519C973 574 1021 611 1088 629"/>
    <path d="M1220 251C1174 236 1128 232 1085 239C1039 247 1003 267 978 301C950 339 937 388 939 448C941 513 958 563 992 596C1023 626 1065 643 1118 648C1162 653 1208 646 1255 629"/>
    <path d="M1184 271C1234 347 1251 430 1232 521"/>
    <path d="M960 338C1009 401 1023 480 1006 575"/>
    <path d="M1148 638L1178 787"/>
    <path d="M1062 639L1018 788"/>
    <path d="M1030 789H1203"/>
    <path d="M320 720C335 664 377 620 443 589C501 561 574 542 661 531C744 520 820 519 889 529"/>
    <path d="M382 779C396 723 437 681 505 651C568 622 647 605 742 600C841 595 932 603 1015 625"/>
    <path d="M438 838C456 787 497 749 561 723C627 695 709 681 807 680C905 679 997 693 1083 723"/>
    <path d="M510 905H1080"/>
    <path d="M587 904L630 1045"/>
    <path d="M1003 904L960 1045"/>
    <path d="M628 1046H959"/>
    <path d="M258 853C259 798 278 758 315 735C347 715 390 713 442 729"/>
    <path d="M1350 587C1298 598 1250 618 1209 648C1172 675 1149 712 1141 758C1134 801 1145 839 1174 871C1206 905 1252 925 1314 930C1368 935 1416 924 1457 896"/>
    <path d="M1390 627C1438 666 1465 714 1470 772C1475 829 1458 879 1418 922"/>
    <path d="M1241 934L1230 1036"/>
    <path d="M1364 934L1374 1036"/>
    <path d="M1203 1038H1400"/>
    <path d="M325 380C355 347 391 321 432 303C486 279 543 271 605 281C670 292 723 320 766 365C804 406 829 453 841 508"/>
    <path d="M345 394C334 454 337 506 355 549C374 594 405 625 447 642C493 661 547 663 610 649"/>
    <path d="M611 648L578 848"/>
    <path d="M450 642L496 848"/>
    <path d="M494 849H576"/>
    <path d="M462 320C468 275 489 238 525 210C565 179 612 164 667 166C727 168 777 188 818 225C857 261 879 304 885 354"/>
    <path d="M348 393L274 339"/>
    <path d="M274 339L246 347"/>
    <path d="M247 348L222 372"/>
    <path d="M223 373L208 415"/>
  </g>
</svg>
